{
  "asset": {
    "version": "2.0",
    "generator": "Sketchup glTF Exporter v1.2.6 by Centaur"
  },
  "scene": 0,
  "scenes": [
    {
      "nodes": [
        0
      ]
    }
  ],
  "samplers": [
    {
    }
  ],
  "nodes": [
    {
      "name": "root",
      "children": [
        1,
        6
      ]
    },
    {
      "name": "Imported Model#1",
      "children": [
        2
      ]
    },
    {
      "name": "Scene Asset",
      "children": [
        3
      ]
    },
    {
      "name": "ropa.obj",
      "children": [
        4
      ]
    },
    {
      "name": "pPlane18",
      "children": [
        5
      ]
    },
    {
      "name": "Component#1",
      "mesh": 0
    },
    {
      "children": [
        7,
        8
      ]
    },
    {
      "mesh": 1
    },
    {
      "mesh": 2
    }
  ],
  "materials": [
    {
      "pbrMetallicRoughness": {
        "baseColorTexture": {
          "index": 0
        },
        "metallicFactor": 0.1,
        "roughnessFactor": 0.9
      },
      "name": "Gamuza azul",
      "doubleSided": true
    },
    {
      "pbrMetallicRoughness": {
        "baseColorTexture": {
          "index": 1
        },
        "metallicFactor": 0.1,
        "roughnessFactor": 0.9
      },
      "name": "banco",
      "doubleSided": true
    },
    {
      "pbrMetallicRoughness": {
        "baseColorTexture": {
          "index": 2
        },
        "metallicFactor": 0.1,
        "roughnessFactor": 0.9
      },
      "name": "Alfombra diamante olivo",
      "doubleSided": true
    },
    {
      "pbrMetallicRoughness": {
        "baseColorTexture": {
          "index": 3
        },
        "metallicFactor": 0.1,
        "roughnessFactor": 0.9
      },
      "name": "Cama",
      "doubleSided": true
    },
    {
      "pbrMetallicRoughness": {
        "baseColorTexture": {
          "index": 4
        },
        "metallicFactor": 0.1,
        "roughnessFactor": 0.9
      },
      "name": "Alfombra de patrón de cuadrados multicolores",
      "doubleSided": true
    },
    {
      "pbrMetallicRoughness": {
        "baseColorTexture": {
          "index": 5
        },
        "metallicFactor": 0.1,
        "roughnessFactor": 0.9
      },
      "name": "aiToon6",
      "doubleSided": true
    },
    {
      "pbrMetallicRoughness": {
        "baseColorTexture": {
          "index": 6
        },
        "metallicFactor": 0.1,
        "roughnessFactor": 0.9
      },
      "name": "Persianas celulares blancas"
    }
  ],
  "images": [
    {
      "bufferView": 0,
      "mimeType": "image/jpeg"
    },
    {
      "bufferView": 1,
      "mimeType": "image/jpeg"
    },
    {
      "bufferView": 2,
      "mimeType": "image/jpeg"
    },
    {
      "bufferView": 3,
      "mimeType": "image/jpeg"
    },
    {
      "bufferView": 4,
      "mimeType": "image/jpeg"
    },
    {
      "bufferView": 5,
      "mimeType": "image/jpeg"
    },
    {
      "bufferView": 6,
      "mimeType": "image/jpeg"
    }
  ],
  "textures": [
    {
      "source": 0,
      "sampler": 0
    },
    {
      "source": 1,
      "sampler": 0
    },
    {
      "source": 2,
      "sampler": 0
    },
    {
      "source": 3,
      "sampler": 0
    },
    {
      "source": 4,
      "sampler": 0
    },
    {
      "source": 5,
      "sampler": 0
    },
    {
      "source": 6,
      "sampler": 0
    }
  ],
  "meshes": [
    {
      "primitives": [
        {
          "attributes": {
            "POSITION": 0,
            "NORMAL": 1,
            "TEXCOORD_0": 2
          },
          "indices": 3,
          "mode": 4,
          "material": 0
        },
        {
          "attributes": {
            "POSITION": 0,
            "NORMAL": 1,
            "TEXCOORD_0": 2
          },
          "indices": 4,
          "mode": 4,
          "material": 1
        },
        {
          "attributes": {
            "POSITION": 0,
            "NORMAL": 1,
            "TEXCOORD_0": 2
          },
          "indices": 5,
          "mode": 4,
          "material": 2
        },
        {
          "attributes": {
            "POSITION": 0,
            "NORMAL": 1,
            "TEXCOORD_0": 2
          },
          "indices": 6,
          "mode": 4,
          "material": 3
        },
        {
          "attributes": {
            "POSITION": 0,
            "NORMAL": 1,
            "TEXCOORD_0": 2
          },
          "indices": 7,
          "mode": 4,
          "material": 4
        },
        {
          "attributes": {
            "POSITION": 0,
            "NORMAL": 1,
            "TEXCOORD_0": 2
          },
          "indices": 8,
          "mode": 4,
          "material": 5
        }
      ]
    },
    {
      "primitives": [
        {
          "attributes": {
            "POSITION": 0,
            "NORMAL": 1,
            "TEXCOORD_0": 2
          },
          "indices": 9,
          "mode": 4,
          "material": 6
        }
      ]
    },
    {
      "primitives": [
        {
          "attributes": {
            "POSITION": 0,
            "NORMAL": 1,
            "TEXCOORD_0": 2
          },
          "indices": 10,
          "mode": 4,
          "material": 6
        }
      ]
    }
  ],
  "accessors": [
    {
      "bufferView": 7,
      "componentType": 5126,
      "count": 2540,
      "type": "VEC3",
      "min": [
        0.0896181332834265,
        -0.014911206381317932,
        -1.4789378991421596
      ],
      "max": [
        1.4029397466799027,
        0.36163353625648814,
        -0.12079833341601753
      ]
    },
    {
      "bufferView": 8,
      "componentType": 5126,
      "count": 2540,
      "type": "VEC3",
      "min": [
        -0.9310558158627892,
        -0.9912155402514624,
        -0.9228769935247007
      ],
      "max": [
        0.9310558158627892,
        0.999999999999078,
        0.9228769935247007
      ]
    },
    {
      "bufferView": 9,
      "componentType": 5126,
      "count": 2540,
      "type": "VEC2",
      "min": [
        -11.811023622047294,
        -10.811023622047294
      ],
      "max": [
        11.81102362204729,
        3.1291474541053774
      ]
    },
    {
      "bufferView": 10,
      "componentType": 5123,
      "count": 624,
      "type": "SCALAR"
    },
    {
      "bufferView": 10,
      "componentType": 5123,
      "count": 312,
      "type": "SCALAR",
      "byteOffset": 1248
    },
    {
      "bufferView": 10,
      "componentType": 5123,
      "count": 312,
      "type": "SCALAR",
      "byteOffset": 1872
    },
    {
      "bufferView": 10,
      "componentType": 5123,
      "count": 312,
      "type": "SCALAR",
      "byteOffset": 2496
    },
    {
      "bufferView": 10,
      "componentType": 5123,
      "count": 312,
      "type": "SCALAR",
      "byteOffset": 3120
    },
    {
      "bufferView": 10,
      "componentType": 5123,
      "count": 624,
      "type": "SCALAR",
      "byteOffset": 3744
    },
    {
      "bufferView": 10,
      "componentType": 5123,
      "count": 36,
      "type": "SCALAR",
      "byteOffset": 4992
    },
    {
      "bufferView": 10,
      "componentType": 5123,
      "count": 36,
      "type": "SCALAR",
      "byteOffset": 5064
    }
  ],
  "bufferViews": [
    {
      "buffer": 0,
      "byteLength": 50624
    },
    {
      "buffer": 0,
      "byteOffset": 50624,
      "byteLength": 52672
    },
    {
      "buffer": 0,
      "byteOffset": 103296,
      "byteLength": 9929
    },
    {
      "buffer": 0,
      "byteOffset": 113225,
      "byteLength": 210690
    },
    {
      "buffer": 0,
      "byteOffset": 323915,
      "byteLength": 6551
    },
    {
      "buffer": 0,
      "byteOffset": 330466,
      "byteLength": 104148
    },
    {
      "buffer": 0,
      "byteOffset": 434614,
      "byteLength": 8596
    },
    {
      "buffer": 0,
      "byteOffset": 443220,
      "byteLength": 30480,
      "target": 34962,
      "byteStride": 12
    },
    {
      "buffer": 0,
      "byteOffset": 473700,
      "byteLength": 30480,
      "target": 34962,
      "byteStride": 12
    },
    {
      "buffer": 0,
      "byteOffset": 504184,
      "byteLength": 20320,
      "target": 34962,
      "byteStride": 8
    },
    {
      "buffer": 0,
      "byteOffset": 524504,
      "byteLength": 5136,
      "target": 34963
    }
  ],
  "buffers": [
    {
      "uri": "data:application/octet-stream;base64,",
      "byteLength": 529640
    }
  ]
}